PathFileType	4	(X/Y/Z)	Patient4_TMGait_0pt2_01_right_13.trc.trc
DataRate	CameraRate	NumFrames	NumMarkers	Units	OrigDataRate	OrigDataStartFrame	OrigNumFrames
40.114613180516	40.114613180516	5	33	mm	40.114613180516	18	       141
Frame#	Time	Sacral			L.Shoulder			Chest			R.Shoulder			Neck			R.ASIS			L.ASIS			R.Thigh.Superior			R.Thigh.Lateral			R.Thigh.Inferior			R.Patella			L.Thigh.Superior			L.Thigh.Lateral			L.Thigh.Inferior			L.Patella			L.Shank.Superior			L.Shank.Lateral			L.Shank.Inferior			R.Shank.Superior			R.Shank.Lateral			R.Shank.Inferior			R.Heel			R.Midfoot.Superior			R.Midfoot.Lateral			R.Toe			L.Heel			L.Midfoot.Lateral			L.Midfoot.Superior			L.Toe			L.Elbow			L.Wrist			R.Elbow			R.Wrist			
		X1	Y1	Z1	X2	Y2	Z2	X3	Y3	Z3	X4	Y4	Z4	X5	Y5	Z5	X6	Y6	Z6	X7	Y7	Z7	X8	Y8	Z8	X9	Y9	Z9	X10	Y10	Z10	X11	Y11	Z11	X12	Y12	Z12	X13	Y13	Z13	X14	Y14	Z14	X15	Y15	Z15	X16	Y16	Z16	X17	Y17	Z17	X18	Y18	Z18	X19	Y19	Z19	X20	Y20	Z20	X21	Y21	Z21	X22	Y22	Z22	X23	Y23	Z23	X24	Y24	Z24	X25	Y25	Z25	X26	Y26	Z26	X27	Y27	Z27	X28	Y28	Z28	X29	Y29	Z29	X30	Y30	Z30	X31	Y31	Z31	X32	Y32	Z32	X33	Y33	Z33	

18	28.693785714286	747.345076462931	1007.512400428482	402.500417096664	986.229226238485	1434.270056753376	268.962877548470	1046.064340541631	1355.103317206199	445.285201908058	930.416776915968	1429.477004899309	600.227965788203	950.620749116984	1491.727656591620	422.716518901831	956.857475226137	939.966934993309	556.746758591900	984.356714565083	958.107010572889	281.463570054027	1030.854172353276	760.812864508230	532.010532084978	976.522010894579	646.317577305498	605.640253544202	1062.221108917137	599.077508629900	528.260099479400	1087.901371602228	509.470626271870	549.190205932993	1017.957709274915	741.167401142742	324.512614212979	935.974857112025	621.157140264424	261.435768200599	1006.829161447941	547.290798211951	342.067176436074	1003.356758981574	476.864028416651	354.216977171022	968.048385589830	404.720469110578	345.560233079359	874.863991975793	297.000301479020	287.671844733127	900.615312070816	185.864915661503	369.360221633546	1053.085322117283	423.159056109393	567.595278160345	977.645319019396	331.203993394819	642.815614857082	1022.378535762668	227.227391385387	598.435783796516	889.809428825950	55.569998453429	590.369977307020	1060.788522386660	114.920505772327	623.581163753268	973.688312243794	53.858855996157	664.621984346982	1179.257765549387	68.918407742365	655.633870217578	754.897928764443	38.500802844748	402.703852043462	834.629926829817	35.801788226965	327.401017449282	916.952256564656	95.318165856486	360.551899216867	1046.555569672613	41.371389139084	341.111459449112	1063.449335565738	1116.606368666955	104.987303990611	1311.193409600143	1071.664683601668	157.159309619306	746.266647486786	1129.010043014569	679.752596518388	699.568365507270	871.093732464846	673.410977319528	
19	28.718714285714	745.895258987468	1008.038386047484	405.585017365853	987.602110209417	1433.709681908362	273.397446629904	1045.757699719702	1354.644177499996	450.312188358764	929.292737458763	1430.247434528511	604.104229392867	951.322358527083	1491.574958352358	426.702411847551	954.211201535681	939.620598772239	561.148219733841	983.482785000871	957.963483318121	285.828334497204	1026.848313785459	759.657065453046	537.583167422201	970.594971620072	645.597483765245	610.964972670079	1056.526561869230	597.822815521654	534.342043790995	1081.562856662478	509.895311896690	554.272885945029	1015.311847777688	740.663638975600	328.211140414734	932.999527007566	621.443590199521	263.889496608249	1003.154779576975	546.784438857155	344.319399521803	999.138343199736	476.398150197156	356.065387968096	963.738364506027	404.505731704632	347.016439493886	870.348102347318	297.250795148972	288.547641011408	895.817951295536	185.761215401065	369.851953714401	1049.889873341369	423.080520455070	572.284137110555	978.818174229950	328.722908399007	649.007931206484	1025.451798303007	226.082218292064	603.040772344319	896.807475250551	52.385634269610	597.248325450731	1067.972428073387	113.180702013255	626.745391109461	982.530410929468	50.709452661952	669.297149199789	1187.779808463340	68.040331948349	655.186582265603	749.852109065660	38.454475825754	402.692744406646	829.598323793079	35.741471772549	327.366522895386	911.935322583090	95.300802533814	360.601132072778	1041.537584457653	41.367076641067	341.138981478698	1069.652221966258	1118.220759312572	109.508497813570	1318.480585325912	1086.715116068305	164.314048319557	739.476058349654	1133.765370909343	680.853525286345	689.910315533242	876.359712705961	672.529505191941	
20	28.743642857143	744.656019793642	1008.224459990945	409.324064684756	988.636843630246	1432.905797096585	278.214996923457	1045.538035877180	1353.966695097071	455.581420731296	928.559039659654	1430.646990431715	608.490088873281	951.950458998131	1491.161043640112	431.151755462862	951.986121560051	938.921844620318	565.786446604159	982.667466224453	957.652548965859	290.502640917720	1023.191117294200	757.960021356223	543.049134837413	965.036973297631	644.326430437348	615.983009915220	1051.038314441939	596.116111465380	539.881918943003	1075.146260943895	509.595818365845	558.820881628338	1013.101648935482	740.070366268705	332.210472139636	930.579534744171	621.562282724247	266.729667351025	1000.137628676010	546.159900463963	346.929922260638	995.648390863332	475.736195859710	358.235903209769	959.983700492484	404.089549784373	348.773376225185	866.192969458084	297.508556973697	289.643588115475	891.202703113520	185.563817107886	370.444847997780	1046.156961239772	422.334793979160	576.465304742436	978.783195762117	326.098878104690	654.387020597056	1026.696101903779	224.630511509470	606.809923270140	900.955896294607	49.961677357548	602.800635294254	1072.500988597426	111.083016316538	629.005377061238	988.268564975554	47.830125005189	672.859268376314	1193.201562318786	66.083792317954	654.079232803490	744.801400548641	38.429732864075	402.695893647612	824.562870306736	35.696553734358	327.339590141453	906.919540487859	95.283637072907	360.673378191108	1036.509288606004	41.344838015395	341.164787431011	1075.244373417827	1119.296797312381	114.807727702643	1324.414783894262	1100.420844124570	172.121157548119	735.276820512387	1136.755822485307	682.804572132819	684.926910574443	879.490773343374	672.505765250778	
21	28.768571428571	743.616605429752	1008.153363903765	413.693992647443	989.402518129582	1431.928391708390	283.422327416493	1045.447536381657	1353.116940517361	461.110154824213	928.235802736603	1430.721282742765	613.396528643261	952.555968138048	1490.550183353561	436.072802382132	950.161129074020	937.951828542699	570.684232793000	981.914862802458	957.218727305059	295.508458978732	1019.951021577721	755.902188617562	548.398601191552	959.999399238610	642.654786822813	620.683075252029	1045.963321048710	594.160214577771	544.895523174408	1068.927735808073	508.744790402138	562.898199606761	1011.272659384215	739.396221764888	336.533841580329	928.626488899339	621.554690644528	269.966105169761	997.645439803614	545.438832581654	349.925790651801	992.742359226817	474.917108606177	360.752164047940	956.670116522898	403.521703765633	350.838893914895	862.321517901609	297.796854881577	290.963611770756	886.721806384884	185.301241545593	371.138657458354	1042.119769657925	421.056250913011	580.209233078642	977.653297789902	323.405235953016	658.962633540115	1026.291716646089	222.914438300268	609.823823092232	902.442292452710	48.136498465310	607.035050395568	1074.490773646242	108.758817552510	630.510816499873	991.040203021169	45.231897052317	675.426866288229	1195.721330765052	63.369845029010	652.645183114695	739.742692605202	38.435453738791	402.712359512377	819.518648092759	35.676290478351	327.323692944472	901.897917637110	95.275598308450	360.769000675013	1031.460945073138	41.311200155283	341.192327442364	1080.192386395556	1119.866820373316	120.836965952863	1329.089374699879	1112.642294541060	180.500558865457	733.477540094333	1138.022391745385	685.737065353099	684.201021660904	880.545255601572	673.640168716103	
22	28.793500000000	742.761486962626	1007.926312011580	418.662361073224	989.975522992347	1430.857496281621	289.015663134716	1045.519777263501	1352.154045311053	466.908616872491	928.327291468395	1430.539773051084	618.813882034151	953.186237594344	1489.819577610462	441.458159399798	948.705422451891	936.810919559299	575.870473188789	981.223502337060	956.714339592650	300.861678851079	1017.187276982420	753.695429344779	553.651104364052	955.607031672076	640.757374690207	625.092637593049	1041.492191848827	592.164066454438	549.455990661533	1063.170209287875	507.532556975760	566.608302035103	1009.737291973390	738.654507460247	341.193052173198	927.005088313275	621.475737755217	273.589751440379	995.498709334806	544.652322755482	353.307281562655	990.224082756214	473.993537839006	363.612470481133	953.643204435339	402.866360926854	353.199136187068	858.627206975927	298.141352649087	292.499908742283	882.313793007180	185.009621959784	371.926645950312	1038.020906907810	419.412364324842	583.602794455370	975.613844871227	320.736821520481	662.790587992860	1024.500547930655	221.018951334256	612.190207877976	901.597804867679	46.765303738121	610.042156218115	1074.188570115929	106.386698063567	631.421440729127	991.155554706272	42.952032272104	677.156061585157	1195.681618258655	60.292558751516	651.167512223131	734.671753922559	38.481037720511	402.740088344867	814.459523182648	35.690610237816	327.323199383479	896.861757087919	95.287003795055	360.887277947347	1026.381200681806	41.274781440714	341.225060586483	1084.473127892816	1119.977948972477	127.534040019204	1332.625837817617	1123.264410299079	189.369146839053	733.826624238921	1137.720601580100	689.725987298248	687.254491688670	879.739632679190	676.190049762770	
